<svg width="512" height="137" viewBox="0 0 512 137" fill="none" xmlns="http://www.w3.org/2000/svg">
<g clip-path="url(#clip0_11_206)">
<path d="M25.0385 0C11.2323 0 -7.9746e-06 11.241 -7.9746e-06 25.0586C-7.9746e-06 38.8747 11.2323 50.1165 25.0385 50.1165C38.8455 50.1165 50.077 38.8747 50.077 25.0586C50.077 11.241 38.8455 0 25.0385 0Z" fill="white"/>
<path d="M106.989 25.7948C106.995 25.1007 107 25.6399 107 25.0783C107 11.2498 95.7657 0 81.9571 0C68.1484 0 56.9141 11.2498 56.9141 25.0783C56.9141 42.5405 42.728 56.7462 25.2898 56.7462C18.4547 56.7462 12.1503 54.6276 7 50.997C12.0149 59.9717 19.5423 67.3662 28.596 72.2254V83.603C28.596 97.4098 39.6059 108.866 53.3929 108.999C67.3145 109.134 78.6834 97.8327 78.6834 83.9229V72.2138C95.2637 63.301 106.705 45.8674 106.99 25.8544H106.988L106.989 25.7948Z" fill="white"/>
<path d="M171.465 63.3497C171.465 77.5125 161.258 83.3641 150.864 83.3641C140.423 83.3641 130.262 77.5125 130.262 63.3497V37.7175H140.006V62.4673C140.006 71.0581 144.785 74.216 150.864 74.216C156.942 74.216 161.721 71.0581 161.721 62.4673V37.7175H171.465V63.3497Z" fill="white"/>
<path d="M190.766 22.7644H180.743V82.2031H190.766V22.7644Z" fill="white"/>
<path d="M221.182 45.4253H209.675V67.7145C209.675 73.6581 213.573 73.566 221.182 73.1945V82.2032C205.87 84.06 199.653 79.8811 199.653 67.7145V22.7645H209.675V35.7671H221.182V45.4253Z" fill="white"/>
<path d="M321.414 22.7644H311.392V82.2031H321.414V22.7644Z" fill="white"/>
<path d="M400.505 45.4253H388.997V67.7145C388.997 73.6581 392.895 73.566 400.505 73.1945V82.2032C385.193 84.06 378.975 79.8811 378.975 67.7145V22.7645H388.997V35.7671H400.505V45.4253Z" fill="white"/>
<path d="M407.883 40.9057H417.906V82.2031H407.883V40.9057ZM408.347 32.082C405.841 29.4821 405.841 25.5811 408.347 23.074C410.853 20.4734 414.937 20.4734 417.442 23.074C419.948 25.5811 419.948 29.4821 417.35 32.082C414.844 34.5898 410.946 34.5898 408.347 32.082Z" fill="white"/>
<path d="M363.141 35.7671H373.813L355.995 83.6892C350.561 98.0347 346.438 100.777 333.263 100.777L333.352 91.3976C339.663 91.7684 343.189 88.704 345.694 82.296L346.158 81.3664L326.484 35.7671H337.435L351.262 69.4791L363.141 35.7671Z" fill="white"/>
<path d="M432.137 76.3524C427.498 71.6155 425.177 65.8576 425.177 58.9852C425.177 52.0198 427.498 46.2612 432.137 41.6179C436.871 36.8817 442.717 34.5597 449.677 34.5597C458.679 34.5597 466.659 39.2038 470.372 46.5398L461.74 51.5554C459.607 47.0979 455.152 44.4043 449.584 44.4043C445.5 44.4043 442.067 45.7976 439.284 48.5832C436.592 51.3689 435.2 54.8063 435.2 58.9852C435.2 63.1641 436.592 66.6007 439.284 69.3871C442.067 72.1728 445.5 73.566 449.584 73.566C455.059 73.566 459.699 70.7796 461.927 66.4149L470.557 71.3368C466.567 78.7673 458.679 83.4106 449.677 83.4106C442.717 83.4106 436.871 81.0886 432.137 76.3524Z" fill="white"/>
<path d="M495.364 54.6197C502.509 56.1987 511.79 59.1709 511.604 69.1085C511.604 73.566 509.841 77.0955 506.407 79.6025C502.974 82.1095 498.705 83.4106 493.508 83.4106C484.321 83.4106 477.546 79.3239 474.577 72.5443L483.207 67.5287C484.785 71.987 488.218 74.2162 493.508 74.2162C498.798 74.2162 501.397 72.4514 501.397 69.0148C501.397 66.0434 497.499 64.2786 492.58 63.0712C485.62 61.3064 476.247 58.5208 476.433 48.769C476.433 44.4964 478.011 41.0606 481.258 38.4607C484.506 35.86 488.59 34.5597 493.415 34.5597C501.117 34.5597 507.336 38.1821 510.583 44.2178L502.138 48.9548C500.56 45.4253 497.591 43.6613 493.415 43.6613C489.61 43.6613 486.641 45.3332 486.641 48.5832C486.641 51.6475 490.539 53.2273 495.364 54.6197Z" fill="white"/>
<path d="M279.19 73.8446C283.366 73.8446 286.893 72.4513 289.677 69.6657C292.46 66.7856 293.853 63.2569 293.853 58.9851C293.853 54.7125 292.46 51.1831 289.677 48.3974C286.893 45.5181 283.366 44.1256 279.19 44.1256C275.014 44.1256 271.488 45.5181 268.703 48.3974C265.92 51.1831 264.528 54.7125 264.528 58.9851C264.528 63.2569 265.92 66.7856 268.703 69.6657C271.488 72.4513 275.014 73.8446 279.19 73.8446ZM293.853 35.7671H303.875V82.2031H293.853V75.5164C290.048 80.8099 284.665 83.4098 277.612 83.4098C271.209 83.4098 265.827 81.0878 261.279 76.3524C256.733 71.6154 254.505 65.7639 254.505 58.9851C254.505 52.1126 256.733 46.354 261.279 41.6178C265.827 36.8809 271.209 34.5588 277.612 34.5588C284.665 34.5588 290.048 37.1603 293.853 42.3609V35.7671Z" fill="white"/>
<path d="M238.308 44.1852C240.748 38.5783 245.448 35.774 252.226 35.774V46.3563C248.52 46.0847 245.267 46.9887 242.465 49.0692C239.664 51.0585 238.308 54.4045 238.308 59.0176V81.8084H228.549V36.5883H238.308V44.1852Z" fill="white"/>
<path d="M313.38 110.236C312.179 110.236 311.245 110.547 310.489 111.215C309.733 111.883 309.376 112.773 309.376 113.886C309.376 114.999 309.733 115.933 310.489 116.6C311.245 117.268 312.179 117.579 313.38 117.579C314.58 117.579 315.514 117.268 316.27 116.6C317.026 115.933 317.382 114.999 317.382 113.886C317.382 112.773 317.026 111.883 316.27 111.215C315.514 110.547 314.58 110.236 313.38 110.236ZM313.38 122.476C310.355 122.476 308.31 124.078 308.31 126.748C308.31 129.463 310.355 131.065 313.38 131.065C316.404 131.065 318.449 129.463 318.449 126.748C318.449 124.078 316.404 122.476 313.38 122.476ZM324.542 127.549C324.542 133.291 320.273 136.851 313.38 136.851C306.442 136.851 302.217 133.291 302.217 127.549C302.217 124.256 303.64 121.764 306.486 120.028C304.307 118.47 303.239 116.289 303.239 113.575C303.239 110.681 304.218 108.456 306.13 106.854C308.087 105.252 310.489 104.451 313.38 104.451C316.27 104.451 318.671 105.252 320.584 106.854C322.496 108.456 323.474 110.681 323.474 113.575C323.474 116.333 322.407 118.47 320.228 120.028C323.119 121.764 324.542 124.256 324.542 127.549Z" fill="white"/>
<path d="M155.598 104.45L144.715 123.826V136.215H138.504V123.826L127.666 104.45H134.74L141.632 117.701L148.525 104.45H155.598Z" fill="white"/>
<path d="M177.677 130.724C180.579 130.724 183.028 129.772 184.977 127.82C186.928 125.869 187.924 123.373 187.924 120.332C187.924 117.292 186.928 114.797 184.977 112.845C183.028 110.893 180.579 109.896 177.677 109.896C174.775 109.896 172.327 110.893 170.376 112.845C168.426 114.797 167.429 117.292 167.429 120.332C167.429 123.373 168.426 125.869 170.376 127.82C172.327 129.772 174.775 130.724 177.677 130.724ZM177.677 136.851C173.097 136.851 169.197 135.262 165.978 132.086C162.804 128.864 161.217 124.961 161.217 120.332C161.217 115.704 162.804 111.801 165.978 108.625C169.197 105.403 173.097 103.815 177.677 103.815C182.257 103.815 186.156 105.403 189.375 108.625C192.596 111.801 194.183 115.704 194.183 120.332C194.183 124.961 192.596 128.864 189.375 132.086C186.156 135.262 182.257 136.851 177.677 136.851Z" fill="white"/>
<path d="M211.182 130.226H223.289V136.216H204.924V104.45H211.182V130.226Z" fill="white"/>
<path d="M246.231 130.724C249.133 130.724 251.581 129.772 253.531 127.82C255.48 125.869 256.478 123.373 256.478 120.332C256.478 117.292 255.48 114.797 253.531 112.845C251.581 110.893 249.133 109.896 246.231 109.896C243.329 109.896 240.88 110.893 238.93 112.845C236.98 114.797 235.983 117.292 235.983 120.332C235.983 123.373 236.98 125.869 238.93 127.82C240.88 129.772 243.329 130.724 246.231 130.724ZM246.231 136.851C241.651 136.851 237.751 135.262 234.532 132.086C231.357 128.864 229.77 124.961 229.77 120.332C229.77 115.704 231.357 111.801 234.532 108.625C237.751 105.403 241.651 103.815 246.231 103.815C250.81 103.815 254.71 105.403 257.929 108.625C261.149 111.801 262.736 115.704 262.736 120.332C262.736 124.961 261.149 128.864 257.929 132.086C254.71 135.262 250.81 136.851 246.231 136.851Z" fill="white"/>
<path d="M288.128 113.526H294.567L285.951 136.215H279.285L270.67 113.526H277.109L282.595 129.408L288.128 113.526Z" fill="white"/>
</g>
<defs>
<clipPath id="clip0_11_206">
<rect width="512" height="137" fill="white"/>
</clipPath>
</defs>
</svg>
